<svg xmlns="http://www.w3.org/2000/svg"><symbol id="brachiosaurus" viewBox="0 0 256 256"><path d="M60 166.7a31 31 0 0 0-7.6.9.1.1 0 0 0-.1.1c0 .3.3.6.8 1l2 1 2.6 1 2.8.8 2.4.6 1.4.2h2.2l2.5-.4a9.2 9.2 0 0 0 2.3-.9 3.9 3.9 0 0 0 1.7-1.4 31.5 31.5 0 0 0-6.3-2.2 30.5 30.5 0 0 0-6.7-.7z"/><path d="M128.3 2a126 126 0 1 0 126 126 126 126 0 0 0-126-126zm82.2 69.5v.3a8.2 8.2 0 0 1-.1 1.4l-.3 2.1a15.5 15.5 0 0 1-.4 2.1 9 9 0 0 1-.2 1.3 15.1 15.1 0 0 0-.9 1.8l-.6 2-.6 2a14.6 14.6 0 0 1-.7 1.9 21.4 21.4 0 0 1-1.7 3 21.1 21.1 0 0 0-1.6 3l-19.7 27.5a1.1 1.1 0 0 1-.3.5l-.2.3-.3.3c-.2.1-.3.3-.5.5l-1.6 2.2-2 2.9a36.2 36.2 0 0 0-2.2 3.2l-2 3.2c-.5 1.1-1 2.1-1.3 3a6 6 0 0 0-.6 2.3c0 .3-.2.5-.2.7s.2.4.2.7c-.2 0-.3.2-.3.4s.1.4.3.4v10.1a4.4 4.4 0 0 1-.2 1c-.2.3-.2.7-.4 1.1s-.5.8-.6 1.2-.4.8-.4 1.1v1.7a.4.4 0 0 1-.1.4 5.9 5.9 0 0 1-.4.8c-.1.3-.5.5-.7.8a1.4 1.4 0 0 1-.5.4v.4c0 .1.7.2.8.4s.9.3.9.4v.6a2.1 2.1 0 0 0 0 .8v1.4c0 1.2-.5 2.3-.6 3.5s-.6 2.3-.8 3.5-.5 2.3-.7 3.5-.3 2.3-.3 3.4.1 4.2.3 6.3a41 41 0 0 0 1.1 6.1 30.1 30.1 0 0 0 2.1 5.7 27.3 27.3 0 0 0 3.4 5.2l-1.3.8-1.6.7-1.7.4h-1.9l-1.1-.3-1.1-.2-1-.2-.8-.2a1.1 1.1 0 0 1-.7-.3l-.6-.4a.9.9 0 0 1-.3-.7c.1-1.3.1-2.7.1-4.1l-.3-4.2c-.1-1.4-.3-2.8-.5-4.2s-.4-2.8-.5-4.1-.1-.3-.2-.6l-.3-.6c.1-1.1.1-2.3.2-3.6s-.1-2.6-.2-4a24.4 24.4 0 0 0-.6-3.9 9.4 9.4 0 0 0-1.4-3.4 3 3 0 0 0-1.4 1.8 17.3 17.3 0 0 0-.8 2.7c-.2.9-.2 1.9-.4 2.8s-.9 1.7-.9 2.3v7.5c0 2.8-.2 5.6-.1 8.2s.2 5.4.5 8.2l.4.3.9.6a4.6 4.6 0 0 1 .7.7.7.7 0 0 1 .4.6c0 .2-.3.5-.8.8l-1.9.9-2 .8-1.2.4h-.2l-4.7-2.6a.3.3 0 0 1-.2-.4v-.6a29.9 29.9 0 0 1 0-3 28.1 28.1 0 0 0 .1-3 24.3 24.3 0 0 0-.3-3.8l-.6-3.6-.6-3.8c-.1-1.2-.2-2.5-.2-3.8s0-2.3.1-3.3l.3-2.8a23.3 23.3 0 0 0 .5-2.8c.2-.9.5-2 .7-3.1s0-.4 0-.7a4.5 4.5 0 0 1-.2-.8l-1.8.3-1.9.5-1.9.6-1.9.5-1.3.2H138c-.3.1-.6-.1-.9-.1l-1.1-.2h-7a44.3 44.3 0 0 0-5.2-.2h-2.4a5.4 5.4 0 0 0-2.4.9 43.4 43.4 0 0 1 0 5.1c0 1.7 0 3.4-.1 5.1l-.3 5.1c0 1.7-.1 3.4-.1 5.1v5.1c0 .5.6 1.1 1.1 1.6l1.4 1.7 1.2 1.7a4.1 4.1 0 0 1 .5 1.8v.4a8.8 8.8 0 0 1-4 .4c.1.5 0 .7-.2.8h-2.7l-2.2-.2a5.1 5.1 0 0 1-1.8-.9 2.2 2.2 0 0 1-.8-1.8c0-.5.1-.9.1-1.3a6.5 6.5 0 0 1 .4-1.3l.3-1.3a6.1 6.1 0 0 0 .1-1.4 24.3 24.3 0 0 0-.3-3.8c-.1-1.2-.4-2.4-.6-3.5s-.6-2.7-.8-3.8a19.3 19.3 0 0 1-.7-4h-.5c-.2 0-.4.8-.5 1a6.1 6.1 0 0 1-.4.6l-.3.6-1.5 2.2a18.2 18.2 0 0 0-1.5 2.3 17.5 17.5 0 0 0-1.1 2.4 10.9 10.9 0 0 0-.4 2.6 3.5 3.5 0 0 0 .4 1.7 10.1 10.1 0 0 0 .7 1.5l.7 1.1.3.6a.8.8 0 0 1-.4.7l-1 .5-1.3.2h-4.4l-1.1-.4a3.5 3.5 0 0 1-.7-.9l-.5-1.6c-.2-.5-.3-1-.5-1.6a4.1 4.1 0 0 1-.3-1.6 4.2 4.2 0 0 1 .4-1.5l1-1.6 1-1.5a5.5 5.5 0 0 0 .8-1.5c.9-1.9 1.7-3.9 2.5-5.8l2.4-5.9.5-.7.5-.7a2.5 2.5 0 0 0 .4-.7 2.9 2.9 0 0 0 .2-.9.6.6 0 0 0-.3-.6h-1.3l-8.9 2.7a3.2 3.2 0 0 1-1.3.6l-1.8.3-1.5.6a1.2 1.2 0 0 0-.7 1.1 1.6 1.6 0 0 0 .3.9l.6.6.8.6a2.1 2.1 0 0 1 .8.6l-.4.4-1.3-.8-1.4-.9-1.5-.6-1.5-.2a17.3 17.3 0 0 0-3.8.5l-3.9 1.1c-1.3.5-2.7.8-4 1.2a20.1 20.1 0 0 1-4.2.5l-3.5-.4-4.8-1.1q-2.7-.7-5.4-1.8A31.5 31.5 0 0 1 51 175a15.4 15.4 0 0 1-3.7-2.7 4.2 4.2 0 0 1-1.4-2.9 4.4 4.4 0 0 1 1.1-3.2 7.7 7.7 0 0 1 2.7-1.7 13.6 13.6 0 0 1 3.5-.1 31.1 31.1 0 0 1 3.3.3h4a2.2 2.2 0 0 1 1.2-.2H64l2.6.3 1.9.3 2 .5 1.7.9 1.8.7a6.9 6.9 0 0 0 2 .3 8.8 8.8 0 0 0 4-1l4.1-2.5 3.8-3.1c1.3-1.1 2.3-2 3.3-2.7L93 157l1.8-1.1a6.6 6.6 0 0 0 1.7-1.2A6.1 6.1 0 0 0 98 153a28.2 28.2 0 0 0 2.6-4.4 33.5 33.5 0 0 1 2.7-4.5 15.9 15.9 0 0 1 1.3-1.3l1.5-.9 1.6-.9 1.7-.9 3.5-2.6 3.4-2.9 3.4-3 3.4-2.8a20 20 0 0 1 3.7-2.2 35.4 35.4 0 0 0 3.9-1.9 19.2 19.2 0 0 0 2.5-1.2l2.4-1.3 2.6-1.2a12.5 12.5 0 0 1 2.6-.7l22.2-3.2a11.2 11.2 0 0 0 3.5-1.2 17.3 17.3 0 0 0 3.4-2.1 41.1 41.1 0 0 0 3.1-2.9c1-1 2-2.1 2.9-3.2l2.6-3.2 2.3-2.8 7.7-8.9.3-.2.5-.6.6-.5.2-.3 2.1-3.2.2-.2.4-.2.4-.2.2-.2.4-.4.3-.4 1.3-1.7 1.3-2a21.4 21.4 0 0 0 1.3-1.9 18.1 18.1 0 0 0 1-1.7 16.7 16.7 0 0 0 .8-2 17.2 17.2 0 0 0 .7-2.1 14.3 14.3 0 0 1 .8-2.2c.3-.7 1-1.5 1-2.2v-6a5.3 5.3 0 0 0-1.1-3.1 12.8 12.8 0 0 0-2.6-2.6 17.4 17.4 0 0 0-3.3-1.8 10.9 10.9 0 0 0-3.2-.7 27.9 27.9 0 0 0-5.8.7 13.7 13.7 0 0 0-5.1 2.6l-1.4 1.5-1.6 1.8-1.7 2a10.7 10.7 0 0 1-1.9 1.8 10.2 10.2 0 0 1-1.8 1.3 2.8 2.8 0 0 1-1.7.5 1.6 1.6 0 0 1-1.2-.4 1.8 1.8 0 0 1-.5-1.2v-.4a2 2 0 0 0 .1-.5c.1-.2.1-.5.2-.7s.1-.6.1-.8a1.1 1.1 0 0 0 .1-.5 7.8 7.8 0 0 0-.2-1.6l-.6-1.4c-.3-.4-.4-.8-.6-1.1a2.8 2.8 0 0 1-.3-1.3l.9-.2a4.3 4.3 0 0 0 .4-.7 2.5 2.5 0 0 0 .4-.7 1.6 1.6 0 0 1 .8-.6h1.4c.4.1.7-.1.9-.1h.5a1.3 1.3 0 0 0 1-.3 2.3 2.3 0 0 1 .7-.7h.4c.1 0 .1.2.2.3s.1.4.2.5a.4.4 0 0 1 .4-.4l.6-.4 1.1-.6 1.4-.8 1.3-.8 1.1-.7c.3-.1.5-.3.5-.4l2.1-1.2a6.4 6.4 0 0 1 1.8-.6 5.8 5.8 0 0 1 1.9-.2h6.4a3.4 3.4 0 0 0 1.4.5l1.6.3 1.5.4a4.4 4.4 0 0 1 1.5.5 14.4 14.4 0 0 1 4.6 2.9 20.7 20.7 0 0 1 3.1 4.2 21.1 21.1 0 0 1 1.7 5 24.7 24.7 0 0 1 .5 5.4v2.3z"/></symbol><symbol id="micropachycephalosaurus" viewBox="0 0 256 256"><path d="M132.2 150.9c-.3 0-.4.2-.4.6h-.1a.5.5 0 0 0-.5.5c0 .4.2.6.5.6s.4-.2.4-.6h.1c.3 0 .5-.1.5-.5s-.2-.6-.5-.6zm1.4-.8a3 3 0 0 0-.8.8h.3l1.1-.3a3 3 0 0 0 .8-.8h-.3a2.3 2.3 0 0 0-1.1.3zm3-2.5a.5.5 0 0 0-.4.5h-.1c-.3 0-.4.2-.4.6h-.1c-.4 0-.5.2-.5.6s.1.5.5.5.4-.1.4-.5h.1c.3 0 .5-.2.5-.6.4 0 .5-.2.5-.6s-.1-.5-.5-.5zm23.1-5.9l-1.3 1.4a2 2 0 0 0 .8 1.1l1.1.2a2.4 2.4 0 0 0 1.4-.5 6.3 6.3 0 0 0 1.1-1.2 10.1 10.1 0 0 0 .7-1.5c.2-.5.4-1.1.5-1.1h-3.4c-.2 0-.5 1-.9 1.6z"/><path d="M127.7 2a126 126 0 1 0 126 126 126 126 0 0 0-126-126zm94.4 74.7a3.3 3.3 0 0 1-1.5.4h-3.7l-5.1 1.2a15.4 15.4 0 0 0-3.6 1.6 8.8 8.8 0 0 0-2.5 2.2A10.1 10.1 0 0 0 204 85a27.4 27.4 0 0 0-1.5 3.8c-.5 1.5-1.1 3.1-1.7 5s-.8 2.4-1.2 3.4a30.3 30.3 0 0 1-1.2 3.2c-.4 1-.9 2-1.4 3.1s-1.1 2.1-1.8 3.2a30.7 30.7 0 0 1-2.6 4l-2.9 3.7-3.1 3.5c-1.1 1.2-2.1 2.5-3.1 3.8a11.6 11.6 0 0 0-1.4 2.7l-.9 2.5a10.2 10.2 0 0 1-1.4 2.2 5.6 5.6 0 0 1-2.4 1.6l-1.4.5-2 .7-2 .6-1.3.4a2.8 2.8 0 0 1 .1 2 1.8 1.8 0 0 1-.8.9l-1.2.6a1.8 1.8 0 0 0-.9 1l-2.2 6.6a2.7 2.7 0 0 1-1.1 1.5 5.6 5.6 0 0 1-1.7.9 13.6 13.6 0 0 1-2 .2l-1.9-.2h-.8c-.5 0-.9.2-1.1.1s-.4-.4-.4-.9a.4.4 0 0 1 .1-.3l.2-.3.2-.3c.1-.1.1-.2.1-.4v-.2a27 27 0 0 0-3.4 1.7l-3.3 2-3.3 2.2-3.4 1.9-.8.5-1.2.5-1 .8a2.1 2.1 0 0 0-.4 1v.6l1.7 1.6 2 1.7a15.6 15.6 0 0 0 2 1.6l2.1 1.3a7.6 7.6 0 0 0 1.8.6l1.9.6 1.9.6a5.1 5.1 0 0 1 1.6.9 5.7 5.7 0 0 1 1.3 1.4l1.2 1.5a7.6 7.6 0 0 0 1.1 1.4 8.6 8.6 0 0 0 1.4 1.3l1.7.6 2 .6a7.7 7.7 0 0 1 1.8 1 2.3 2.3 0 0 1 .8 1.7.4.4 0 0 1-.1.3v.2l-5.6 1.2-1.1.4-1.1.2h-.6l-1.1-.7-1.7-1a12.8 12.8 0 0 1-1.7-1l-1.1-.7-.2-.2-.3-.5-.3-.6-.3-.4-2.2-4.5-1.1-.4-1.8-.8-2.1-.9-2.2-.9-1.7-.8-1.1-.6-2.8-1.6a17.1 17.1 0 0 1-2.6-2.1 13.5 13.5 0 0 1-2-2.7 8.7 8.7 0 0 1-1-3.1l-.6.2-.6.4-.8.6-1.7 1.2-2.1 1.4-2.1 1.3-1.8 1.1-.9.5-5.9 3.5a20.4 20.4 0 0 0-4.5 3.4 15.4 15.4 0 0 0-3.6 4.4c-.9 1.7-.7 3.9-2.4 6.6v1.5a8.8 8.8 0 0 0 1.2 4.4 6.9 6.9 0 0 0 2.1 2.6 7.2 7.2 0 0 0 2.6 1.4l2.5.9a9.3 9.3 0 0 1 2 1 5.3 5.3 0 0 1 .8 2h-13.1c-.1 0-.1-.2-.2-.4s-.3-.1-.4-.2h-.5l-.6-.4a2.3 2.3 0 0 1-1.2-1.5 7.2 7.2 0 0 1-.5-2.1 16.4 16.4 0 0 1 .2-2.3c0-.8.3-1.5.3-2.1v-1.4a6.9 6.9 0 0 1 .2-1.8 16.7 16.7 0 0 0 .6-2.6c.3-1 .5-2.1.8-3.2s.5-2.1.8-3.1.5-1.9.6-2.6l.5-1.8.6-2a11.2 11.2 0 0 1 1-1.8 16.1 16.1 0 0 0 4.5-2.6l3.2-3.2 2.9-3.5a14.3 14.3 0 0 1 3.4-3l1.4-.7 2-.8 2.3-1 2.2-1.1a6.4 6.4 0 0 0 1.5-1.3 2.2 2.2 0 0 0 .6-1.5v-1.3a1.4 1.4 0 0 0-.6-1.2l-.8-.3-1.1-.6-1.2-.5-.8-.3a9.4 9.4 0 0 1-2-1.2l-2.6-1.9c-.9-.7-1.8-1.1-2.5-1.6a3 3 0 0 0-1.8-.5h-7.8c-5.9 0-11.7-.1-17.5.1s-11.6.2-17.5.2c-4.4 0-8.6-.2-12.8-.4s-8.2-.7-12.3-1.3a98.3 98.3 0 0 1-11.9-2.9 83.9 83.9 0 0 1-11.7-5l-1.4-.8-1.5-1a3.8 3.8 0 0 1-1.3-1.2 2.5 2.5 0 0 1-.6-1.6 5.9 5.9 0 0 1 2.1.4l2.4.9 2.2 1 1.5.6c1.4.6 3 1.1 4.6 1.6a41.3 41.3 0 0 0 5 1.5l5.1 1 4.8.3h26.3l2.6-.4 3.3-.5 3.6-.6 3.4-.6 2.6-.6 6.9-1.3c2.4-.4 4.8-1 7.3-1.6s4.8-1.3 7.2-2.1a55.1 55.1 0 0 0 6.5-2.7l3.8-1.8 3.8-1.6 3.9-1.3a25.9 25.9 0 0 1 4.2-.9h2.7l1.8-.2 1-.2 1.9-.3 3.3-.7 4-.9 4.1-.9c1.2-.3 2.3-.9 3.2-1.1s1.6-.8 1.9-.8h6.5c2.7 0 5.3.5 7.9.7a64.9 64.9 0 0 0 7.8.6 10.1 10.1 0 0 0 5-1.3 19.9 19.9 0 0 0 4.4-3.5 28 28 0 0 0 3.9-4.9 62.2 62.2 0 0 0 3.2-5.6 52.5 52.5 0 0 0 2.5-5.5c.8-1.8 1.3-3.4 1.8-4.8s.8-2.3 1.1-3.4.7-2.2 1-3.1a10.3 10.3 0 0 1 1.2-2.6 7 7 0 0 1 1.8-2 6.8 6.8 0 0 1 2.6-1.6 12 12 0 0 1 3.7-.8h3.1c.7 1.7 1.7.9 2.9 1.3a22.1 22.1 0 0 1 3.5 1.6 10.9 10.9 0 0 1 3 1.8 2.6 2.6 0 0 1 1.2 2.1 2 2 0 0 1-.4 1.4 2.5 2.5 0 0 1-1.2.5z"/></symbol><symbol id="velociraptor" viewBox="0 0 256 256"><path d="M128 2a126 126 0 1 0 126 126A126 126 0 0 0 128 2zm109 115h-7.3a91 91 0 0 1-9.1-.4l-9-1-9-.9c-3-.3-6.1-.5-9.1-.5a126.9 126.9 0 0 0-16.2 1 73.9 73.9 0 0 0-15.6 3.7l-30.3 10.9a2.4 2.4 0 0 0-1.2 1.5 22.9 22.9 0 0 0-.8 2.8l-.6 2.8a8.5 8.5 0 0 1-.6 1.9 2.7 2.7 0 0 0 1.3 1.3l2.4 1.2 2.9 1.2a11.5 11.5 0 0 1 2.7 1.4 7.6 7.6 0 0 1 2.1 1.8 3.6 3.6 0 0 1 .8 2.5 1.3 1.3 0 0 1-.5 1.2 3.6 3.6 0 0 1-1.2.8l-1.6.8-1.5.8-1.3 1a2.4 2.4 0 0 0-.4 1.5 3.7 3.7 0 0 0 .7 2.5 10.8 10.8 0 0 0 2 1.6l2.3 1.3a6.8 6.8 0 0 1 2.1 1.7 13.2 13.2 0 0 1 2 3.4 16.3 16.3 0 0 1 1.3 3.7c.3 1.2.6 2.5.8 3.8s.1 2.6.2 3.9l1.3 1.3v7.1h.9l1 .2 1 .2.5.2a3.2 3.2 0 0 1 .1.8 3.8 3.8 0 0 1-.1 1 5.6 5.6 0 0 1-.4 1.2 2.1 2.1 0 0 1-.6 1c-.2.3-.5.3-.9.3H143c-.2 0-.5-.6-1-.9l-1.5-.8-1.5-.8c-.5-.3-.9-.8-1.2-.8h-6.1a5 5 0 0 1 .7-3 3.9 3.9 0 0 1 1.6-1.5l2.1-.6 2.1-.4a3.4 3.4 0 0 0 1.6-.6 1.3 1.3 0 0 0 .7-1.3.8.8 0 0 0-.1-.4v-.4l-.8-1.7c-.4-.8-.8-1.6-1.3-2.4a20.7 20.7 0 0 0-1.5-2.5 15.8 15.8 0 0 0-1.5-1.8l-1.3-.8-1.9-.9-1.7-1a3.3 3.3 0 0 1-1-1.1c-.3-.8-.6-1.8-.9-2.9a15.1 15.1 0 0 0-1.1-3.2 7.8 7.8 0 0 0-1.7-2.6 3.7 3.7 0 0 0-2.8-1 20.6 20.6 0 0 0-6 .8 23.2 23.2 0 0 0-5.7 2.2 23.8 23.8 0 0 0-4.9 3.4 24.4 24.4 0 0 0-3.9 4.6h-.6a.5.5 0 0 1-.2-.4c-.1-.2-.1-.4-.2-.6a1.4 1.4 0 0 0-.2-.6.4.4 0 0 0-.1-.3h-.3a1.4 1.4 0 0 0-1 .5 4.8 4.8 0 0 0-.9 1.1l-.8 1.3a3 3 0 0 1-.9 1 3.2 3.2 0 0 1-.6-1.6 7.6 7.6 0 0 1-.1-1.6 9.2 9.2 0 0 1 .4-2.9l.9-2.8c.3-.9.6-1.5.9-2.5a15.9 15.9 0 0 0 .4-2.8h-4.8c0-1.6.2-1.7.6-2.3a6.1 6.1 0 0 1 1.6-1.6 10.2 10.2 0 0 1 2.1-.9l2.1-.3 3 .2 2.9.5 2.9.5 2.9.2h2.2a2.5 2.5 0 0 0-1.6-1.4l-2.5-.4-2.7-.2c-.9-.1-1.6.1-2.2-.2l-3.8-2.2h-.3a11.4 11.4 0 0 0-3.2 0 15.6 15.6 0 0 1-3.1.2 7.3 7.3 0 0 1-3-.7l-2.6-1.4-2.6-1.5a4.8 4.8 0 0 0-2.8-.6v5.9h1.6l.9-.3.9-.5.9-.7h.6v2.7l2-.7c0 .1.2.3.2.5a2 2 0 0 0 .1.5 5.6 5.6 0 0 1-1.3 3.9 23.1 23.1 0 0 1-3.2 2.9 21.3 21.3 0 0 0-4.6-1.3l-4.7-.7v-7.7l-1.7.5-2.1 1A14 14 0 0 0 72 150c-.5.4-1 .8-1 1.2v6.8a9.6 9.6 0 0 0 3-.3l1.8-.5 1.2-.6a2.7 2.7 0 0 1 1.2-.3h.4a4.5 4.5 0 0 0 .2.8c.2.3.3.8.5 1.2a6.5 6.5 0 0 1 .4 1.3 5.1 5.1 0 0 1 .2.9 6.5 6.5 0 0 1-.4 1.9 5.4 5.4 0 0 1-1.1 1.8 3.7 3.7 0 0 1-1.5 1.3 3.2 3.2 0 0 1-1.8.6H74l-2.9-.5-3.6-.7a14.2 14.2 0 0 1-3.3-1.2 2.6 2.6 0 0 1-1.4-2.1v-11.9l.9-.8 1.9-1.6 2.3-2.2a18.8 18.8 0 0 0 2.4-2.5 20.3 20.3 0 0 0 1.8-2.6 6.8 6.8 0 0 0 .7-2.6 3.7 3.7 0 0 0-1.2-2.7 10.5 10.5 0 0 0-2.7-2 15.6 15.6 0 0 0-3.3-1.4l-2.5-.9-1.3-9a13.1 13.1 0 0 0-.6-2.7 9.6 9.6 0 0 0-1.1-2.8 6.8 6.8 0 0 0-1.7-2.1 4.1 4.1 0 0 0-2.7-.8 12.8 12.8 0 0 0-3.6.4 15 15 0 0 0-3.2 1.5l-1.6 1-2.5 1.5-2.9 1.7-3 1.8-2.5 1.6c-.8.4-1.3 1.1-1.6 1.1h-1l-1.7-.2-2.1-.4a3.1 3.1 0 0 1-1.4-.7c-.4-.3-.3-.8-.3-1.4v-1.8c0-.6-.2-1 0-1h1.6a.5.5 0 0 1 0-.4 2.2 2.2 0 0 0 .1-.8 2.9 2.9 0 0 0 .2-.9.4.4 0 0 0 0-.5l-.7-.8-.9-.5-.7-.6a2.3 2.3 0 0 1-.3-1.3 2.6 2.6 0 0 1 .3-1.1 3.4 3.4 0 0 1 .6-1.2c.3-.3.3-.6.6-.9l.8-.3v.8c0 .5.5 1 .6 1.4a1.2 1.2 0 0 0 1.2.8 1.8 1.8 0 0 0 1.1-.5 4.8 4.8 0 0 0 .9-1.1c.3-.5.5-1.2.7-1.6s.2.2.2-1.4H22.5a2.1 2.1 0 0 1-.9-.5l-1-.7-.9-.7a1.5 1.5 0 0 1-.4-1.1 4.5 4.5 0 0 1 1.1-3.1 6.1 6.1 0 0 1 2.6-1.8 16 16 0 0 1 3.1-1 13.6 13.6 0 0 0 2.8-.8l2.2-.9 3.4-1.6 3.3-1.5a7 7 0 0 1 2.1-1.1h13.5a7.6 7.6 0 0 1 3.9 1 11.8 11.8 0 0 1 3 2.5 29.1 29.1 0 0 1 2.6 3.3l2.2 3.2a20.2 20.2 0 0 0 2.3 2.6 3.7 3.7 0 0 0 2.4 1 .9.9 0 0 0 .8-.4c.2-.3.4-.4.9-.4l1.5.3 1.5.7 1.5.7 1.5.3 4.1-.2 4.1-.5 4-.4a28.3 28.3 0 0 1 4.1-.3c2.5 0 4.9.2 7.2.4a38.9 38.9 0 0 1 7.2 1.6c1.6.6 3.3 1.2 5 2l5.1 2.1 5.1 1.8a25 25 0 0 0 5.4.7h2.6l12.7-2.6c4.3-.9 8.5-1.7 12.8-2.3s8.5-1.2 12.8-1.6 8.6-.5 13-.5h8.7a50.7 50.7 0 0 1 5 .9l36.1 7.2h11.6c-.8 0-1.8 1-3.1 1.4a26.1 26.1 0 0 1-4 .1z"/></symbol></svg>