<svg xmlns="http://www.w3.org/2000/svg" id="Layer_1" viewBox="0 0 256 256" width="256" height="256"><path d="M-513 166.7c-2.7 0-5.2.3-7.6.9v.2c0 .3.3.6.8 1 .5.3 1.2.7 2 1 .8.3 1.7.7 2.6 1 1 .3 1.9.6 2.8.8.9.2 1.7.4 2.4.6.7.1 1.2.2 1.4.2.6 0 1.3 0 2.1-.1s1.7-.2 2.5-.4 1.6-.5 2.4-.9c.7-.4 1.3-.9 1.7-1.4-2-1-4.1-1.7-6.3-2.2-2.3-.5-4.6-.7-6.8-.7z"/><path d="M-444.7 2c-69.6 0-126 56.4-126 126s56.4 126 126 126 126-56.4 126-126-56.4-126-126-126zm82.2 69.5v.3c0 .3 0 .7-.1 1.4l-.3 2.1-.3 2.1c-.1.6-.2 1.1-.2 1.3-.4.6-.7 1.2-.9 1.8-.2.6-.4 1.3-.6 2-.2.7-.4 1.3-.6 2-.2.7-.4 1.3-.7 1.9-.5 1.1-1.1 2.1-1.7 3-.6.9-1.1 1.9-1.6 3l-19.8 27.5c-.1.3-.2.4-.2.5l-.3.3-.3.3c-.1.1-.2.3-.4.5-.4.6-1 1.3-1.6 2.2-.6.9-1.3 1.8-2 2.9-.7 1-1.4 2.1-2.2 3.2-.7 1.1-1.4 2.2-2 3.2-.6 1.1-1 2-1.4 2.9-.3.9-.5 1.7-.5 2.3 0 .3-.2.5-.2.7s.2.4.2.7c-.2 0-.3.1-.3.4 0 .2.1.4.3.4v10.1c0 .3-.1.6-.2 1-.2.4-.2.7-.4 1.2-.1.4-.5.8-.6 1.2-.1.4-.4.8-.4 1.1v1.6s.1.2 0 .4-.2.5-.4.8c-.2.3-.5.6-.7.8-.2.2-.5.4-.5.4v.4c0 .1.7.2.8.4.1.2.9.3.9.4v2.8c0 1.2-.4 2.3-.6 3.5-.2 1.2-.6 2.3-.8 3.5-.2 1.2-.5 2.3-.7 3.5-.2 1.2-.3 2.3-.3 3.5 0 2.1.1 4.2.3 6.2.2 2.1.6 4.1 1.1 6.1.5 2 1.2 3.9 2.1 5.7.9 1.8 2 3.6 3.4 5.2-.3.3-.7.6-1.3.8-.5.3-1.1.5-1.7.7-.6.2-1.2.3-1.7.5-.6.1-1 .1-1.4.1 0 0-.2 0-.5-.1s-.6-.1-1-.2l-1.2-.3c-.4-.1-.7-.2-1-.2-.2 0-.5-.1-.7-.1-.2-.1-.5-.2-.7-.3-.2-.1-.4-.3-.6-.5-.2-.2-.3-.4-.3-.7.1-1.3.2-2.6.1-4 0-1.4-.1-2.8-.3-4.2-.1-1.4-.3-2.8-.5-4.2-.2-1.4-.4-2.7-.5-4-.1-.1-.1-.3-.2-.6s-.2-.5-.2-.6c.1-1.1.1-2.3.1-3.6 0-1.3 0-2.6-.1-4-.1-1.3-.3-2.7-.6-3.9-.3-1.3-.8-2.4-1.4-3.4-.6.4-1.1 1-1.4 1.8-.3.8-.6 1.7-.8 2.7-.2 1-.2 1.9-.4 2.9-.3 1-.9 1.7-.9 2.3v7.6c0 2.8-.2 5.6-.1 8.2.1 2.7.2 5.4.6 8.1 0 0 .1.2.4.3.3.2.5.4.8.6.3.2.5.4.8.7.2.2.3.4.3.6 0 .2-.3.5-.8.8-.5.3-1.1.6-1.8.9-.7.3-1.4.6-2 .8-.6.2-1.1.4-1.3.4h-.2l-4.7-2.6c-.3-.1-.2-.4-.2-.5v-.6c0-1.1-.1-2.1 0-3 .1-.9.1-1.9.1-3 0-1.3-.1-2.5-.3-3.8-.2-1.2-.4-2.5-.6-3.7-.2-1.2-.4-2.5-.6-3.7-.2-1.2-.3-2.5-.3-3.9 0-1.2 0-2.3.1-3.3s.2-1.9.3-2.8c.2-.9.3-1.8.5-2.8.2-1 .4-2 .7-3.2v-.7c-.1-.3-.1-.5-.1-.7-.6 0-1.2.1-1.9.2-.6.1-1.2.3-1.8.5s-1.3.4-1.9.6c-.6.2-1.3.4-1.9.5-.5.1-1 .1-1.3.2-.4 0-.7.1-1.1.1-.3 0-.7-.1-1-.1-.3 0-.7-.2-1.1-.2h-1.8c-1.8 0-3.5.1-5.2 0-1.7-.2-3.4-.2-5.2-.2-.8 0-1.6.1-2.4.1-.8 0-1.6.3-2.3.8v5.2c0 1.7-.1 3.4-.2 5.1l-.3 5.1c0 1.7-.1 3.4-.1 5.1v5c0 .5.7 1.1 1.1 1.7.5.6.9 1.1 1.4 1.7.4.6.8 1.2 1.2 1.7.3.6.5 1.2.5 1.8v.4c-1.3.4-2.6.6-4 .4.1.5 0 .7-.2.8-.2 0-.5.1-.7.1h-2c-.8 0-1.5-.1-2.2-.2-.7-.1-1.3-.4-1.8-.8s-.8-1-.8-1.8c0-.4 0-.8.1-1.3.1-.4.2-.9.3-1.3.1-.4.2-.9.3-1.3.1-.4.1-.9.1-1.4 0-1.3-.1-2.6-.3-3.8-.2-1.2-.4-2.4-.7-3.6-.2-1.2-.5-2.6-.8-3.8-.3-1.2-.5-2.3-.7-3.9h-.4c-.2 0-.4.7-.5.9-.1.2-.3.5-.4.7-.1.2-.2.4-.3.5-.5.7-1 1.5-1.5 2.3-.5.7-1 1.5-1.4 2.3-.4.8-.8 1.6-1.1 2.4-.3.8-.4 1.7-.4 2.7 0 .5.1 1.1.3 1.6.2.5.5 1 .7 1.5.3.4.5.8.7 1.2.2.3.3.5.3.6 0 .3-.1.5-.4.7-.3.2-.6.3-1 .5-.4.1-.9.2-1.3.3-.5 0-.9.1-1.3.1h-1.2c-.7 0-1.3-.1-1.7-.1-.4 0-.8-.2-1.1-.4-.3-.2-.5-.5-.7-.9-.2-.4-.4-.9-.5-1.6-.2-.5-.3-1.1-.5-1.6s-.3-1.1-.3-1.6.1-1 .4-1.5c.3-.5.6-1.1.9-1.6.4-.5.7-1.1 1.1-1.6.4-.5.6-1 .8-1.4.8-1.9 1.6-3.9 2.4-5.9.8-2 1.6-3.9 2.4-5.9.1-.3.3-.5.5-.7.2-.2.4-.5.5-.7.2-.2.3-.5.4-.7.1-.3.2-.5.2-.8 0-.4-.1-.6-.3-.6-.2 0-.4-.1-.6-.1h-.6l-8.9 2.4c-.3.2-.7.4-1.3.5-.6.1-1.2.3-1.8.4-.6.1-1.1.3-1.6.6-.5.2-.7.6-.7 1.1 0 .4.1.7.3.9.2.2.4.5.6.7.3.2.5.4.8.5.3.2.5.4.7.6l-.4.4c-.4-.3-.8-.5-1.3-.8-.5-.3-.9-.6-1.4-.8-.5-.2-1-.5-1.5-.6-.5-.2-1-.2-1.5-.2-1.2 0-2.5.2-3.8.5-1.3.3-2.6.7-3.9 1.1-1.3.4-2.7.8-4.1 1.1-1.4.3-2.8.5-4.2.5-.8 0-1.9-.1-3.4-.4-1.5-.2-3.1-.6-4.8-1.1-1.8-.5-3.6-1.1-5.4-1.7-1.8-.7-3.5-1.4-4.9-2.2-1.5-.8-2.7-1.7-3.6-2.7-1-1-1.4-1.9-1.4-2.9 0-1.4.4-2.5 1.1-3.2.7-.8 1.6-1.3 2.7-1.6 1.1-.3 2.2-.1 3.5-.1 1.2 0 2.3.3 3.3.3h3.9c.1 0 .6-.3 1.3-.2.7.1 1.5 0 2.3.1.9.1 1.7.2 2.5.3.8.1 1.5.2 2 .3.7.1 1.3.3 1.9.5.6.3 1.2.5 1.8.8.6.3 1.2.5 1.8.7.6.2 1.3.3 2 .3 1.2 0 2.6-.3 3.9-1.1 1.4-.7 2.7-1.5 4.1-2.5 1.3-1 2.6-2 3.9-3.1 1.2-1.1 2.3-2 3.2-2.7.6-.5 1.2-.9 1.8-1.2.6-.3 1.2-.7 1.8-1.1.6-.4 1.2-.8 1.7-1.2.5-.5 1-1 1.5-1.7 1-1.4 1.8-2.9 2.6-4.4.8-1.5 1.7-3 2.7-4.4.4-.5.8-.9 1.3-1.3s1-.7 1.5-1 1.1-.6 1.6-.9c.6-.3 1.1-.6 1.6-.9 1.2-.8 2.4-1.7 3.6-2.6 1.2-.9 2.3-1.9 3.4-2.9l3.3-3c1.1-1 2.2-1.9 3.4-2.8 1.2-.9 2.4-1.6 3.7-2.2l3.9-1.8c.8-.4 1.7-.8 2.5-1.3.8-.4 1.6-.9 2.4-1.3.8-.4 1.7-.8 2.5-1.1.9-.3 1.7-.6 2.6-.7l22.2-3.2c1.2-.2 2.3-.5 3.5-1.1 1.2-.6 2.3-1.3 3.3-2.2 1.1-.9 2.1-1.8 3.2-2.9 1-1.1 2-2.1 2.9-3.2.9-1.1 1.8-2.2 2.6-3.2s1.6-2 2.3-2.8l7.6-8.9s.2-.1.3-.3l.5-.5.5-.5c.2-.1.2-.2.3-.3l2-3.2.2-.2c.1-.1.2-.1.4-.2.1-.1.3-.2.4-.2.1-.1.2-.1.2-.2.1 0 .2-.2.4-.4l.4-.4c.4-.5.8-1.1 1.2-1.7.5-.6.9-1.3 1.4-2 .5-.7.9-1.3 1.3-1.9.4-.6.7-1.2 1-1.7.3-.6.6-1.3.9-2 .2-.7.5-1.4.7-2.1.2-.7.5-1.4.8-2.2.3-.7 1-1.5 1-2.2v-6c0-1.1-.4-2.1-1.1-3.1-.7-1-1.6-1.8-2.6-2.6s-2.1-1.4-3.3-1.8c-1.2-.4-2.2-.7-3.2-.7-2 0-3.9.2-5.8.7-1.8.4-3.5 1.3-5.1 2.6-.4.4-.9.8-1.4 1.4-.5.6-1 1.2-1.6 1.9-.6.7-1.2 1.3-1.7 2-.6.7-1.2 1.3-1.8 1.8-.6.5-1.2 1-1.8 1.3-.6.3-1.2.5-1.8.5-.4 0-.9-.2-1.2-.5-.3-.3-.5-.7-.5-1.1V67c0-.1.1-.2.1-.5 0-.2.1-.5.2-.8 0-.3.1-.5.1-.8 0-.2.1-.4.1-.5 0-.6-.1-1.2-.2-1.7-.2-.5-.4-.9-.6-1.3l-.6-1.2c-.2-.4-.2-.8-.2-1.2.4 0 .7-.1.8-.3.2-.2.3-.4.4-.6.1-.2.3-.5.4-.7.2-.2.4-.4.8-.6h.5c.2 0 .5-.1.9-.1.3 0 .6-.1.9-.1h.5c.4 0 .8-.1.9-.4l.7-.7h.3c.1 0 .2.2.2.4.1.2.1.3.2.4 0-.2.2-.3.4-.4.1-.1.3-.2.6-.4s.7-.4 1.1-.6c.4-.2.9-.5 1.3-.8.5-.3.9-.5 1.3-.8.4-.2.8-.5 1.1-.6.3-.2.5-.3.6-.4.8-.5 1.5-1 2.1-1.2.6-.3 1.2-.5 1.8-.6.6-.1 1.2-.2 1.9-.2h6.4c.5.2 1 .4 1.5.5l1.5.3 1.5.3c.5.1 1 .3 1.5.5 1.7.8 3.3 1.8 4.5 3 1.3 1.2 2.3 2.6 3.2 4.2.8 1.5 1.3 3.2 1.7 5 .4 1.8.5 3.6.5 5.4V71c.3 0 .3.3.3.5zM128 2C58.4 2 2 58.4 2 128s56.4 126 126 126 126-56.4 126-126S197.6 2 128 2zm109 115c-1.4.1-2.8.1-4.1 0-1.3 0-2.4-.1-3.2-.1-3 0-6-.1-9.1-.4-3-.3-6-.6-9-1-3-.3-6-.7-9-1-3-.3-6-.4-9.1-.4-5.3 0-10.7.3-16.1 1-5.4.7-10.6 1.9-15.7 3.7l-30.3 10.9c-.5.2-.9.7-1.2 1.5-.3.8-.6 1.7-.8 2.7-.2 1-.4 1.9-.6 2.8-.2.9-.4 1.6-.6 1.9.2.5.7.9 1.4 1.3s1.5.8 2.4 1.2c.9.4 1.9.8 2.9 1.2 1 .4 1.9.9 2.7 1.4.8.5 1.5 1.2 2.1 1.9.5.7.8 1.5.8 2.4 0 .5-.2.9-.5 1.2-.3.3-.7.6-1.2.9-.5.3-1 .5-1.6.7-.6.2-1.1.5-1.6.8-.5.3-.9.6-1.2 1-.3.4-.5.9-.5 1.5 0 1.1.3 1.9.8 2.5.5.6 1.2 1.1 1.9 1.6s1.5.9 2.4 1.3c.8.4 1.5 1 2.1 1.7.8 1.1 1.5 2.2 2 3.4.5 1.2 1 2.4 1.3 3.6s.6 2.5.8 3.8c.2 1.3.1 2.6.3 3.9l1.3 1.3v7.1h.8c.3 0 .7.1 1 .2.3.1.7.1 1 .2.3.1.5.1.6.2 0 .4.1.7.1.8 0 .2 0 .5-.1 1-.1.4-.2.8-.4 1.2-.2.4-.4.6-.6.9-.2.3-.5.3-.9.3H143c-.2 0-.5-.5-1-.8-.5-.3-1-.5-1.5-.9s-1-.5-1.5-.8c-.5-.3-.9-.9-1.2-.9h-6.1c0-1.6.2-2.3.6-2.9.4-.7 1-1.2 1.6-1.5.7-.3 1.3-.5 2.1-.6l2.1-.3c.6-.1 1.2-.3 1.6-.6.4-.3.6-.7.6-1.4v-.6c-.2-.4-.5-1-.8-1.8-.4-.8-.8-1.6-1.3-2.4-.5-.9-1-1.7-1.5-2.4-.5-.8-1.1-1.4-1.5-1.8-.2-.2-.7-.5-1.3-.8l-1.8-.9c-.6-.3-1.2-.7-1.7-1.1-.5-.3-.8-.7-1-1.1-.3-.8-.6-1.8-.9-2.9-.3-1.1-.6-2.2-1.1-3.2-.4-1-1-1.9-1.7-2.6-.7-.7-1.7-1-2.9-1-2 0-4 .3-6 .8s-3.9 1.3-5.7 2.2c-1.8 1-3.4 2.1-4.9 3.4-1.5 1.3-2.8 2.9-3.9 4.5-.1.1-.2.2-.3.2h-.2c-.1 0-.1-.1-.1-.1-.1 0-.1-.1-.2-.3 0-.2-.1-.4-.2-.6 0-.2-.1-.4-.2-.6 0-.2-.1-.3-.1-.3-.1 0-.2-.1-.3-.1-.4 0-.8.2-1.1.5-.3.3-.6.7-.9 1.2-.3.4-.6.9-.8 1.3-.3.4-.5.8-.8 1-.4-.6-.6-1.2-.6-1.6 0-.4-.1-1-.1-1.6 0-1 .1-2 .4-2.9.3-.9.6-1.8.9-2.8.3-.9.6-1.6.9-2.5.3-1 .4-2.7.4-2.7h-4.8c0-1.6.2-1.8.6-2.4.4-.6 1-1.2 1.6-1.6.6-.4 1.3-.7 2.1-.9.8-.2 1.5-.3 2.1-.3 1 0 2 0 3 .2s2 .3 2.9.5c1 .2 1.9.3 2.9.5 1 .1 1.9.2 2.9.2h2.3c-.3-.7-.9-1.1-1.7-1.3-.8-.2-1.6-.4-2.5-.4-.9-.1-1.8-.1-2.7-.2-.9 0-1.6.1-2.2-.2l-3.9-2.2h-.3c-1.1 0-2.1-.3-3.1 0-1 .2-2.1.2-3.1.2-1.1 0-2.1-.3-3-.7-.9-.4-1.8-.9-2.6-1.4-.8-.5-1.8-.9-2.6-1.3s-1.2-.6-2.9-.6v6s1.2 0 1.6-.1c.3-.1.7-.2 1-.3.3-.1.6-.3.9-.5.3-.2.4-.4.9-.6.1-.1.6-.1.6-.2v2.7l2-.7c0 .1.2.3.2.5s.1.4.1.5c0 1.6-.4 2.9-1.3 3.8-.9 1-2 2-3.2 2.9-1.6-.6-3.1-1-4.6-1.2-1.5-.2-3.1-.5-4.7-.7v-7.7c0 .1-1 .2-1.7.5s-1.4.6-2 1c-.7.4-1.4.8-1.9 1.2-.5.4-.9.8-.9 1.2v6.8c1.6 0 2.3-.1 2.9-.3.7-.2 1.4-.4 1.8-.6.4-.2.9-.4 1.2-.6.3-.2.8-.3 1.2-.3h.3c0 .1.1.3.3.7.1.4.3.8.5 1.2.1.4.3.9.4 1.3.1.4.2.7.2 1 0 .6-.1 1.2-.4 1.9-.3.6-.6 1.2-1.1 1.8-.4.5-1 1-1.5 1.3-.6.4-1.2.5-1.8.5-.1 0-.3 0-.6-.1H74c-.7-.1-1.7-.3-3-.5-1.2-.2-2.4-.4-3.6-.7-1.2-.3-2.4-.7-3.2-1.2-.9-.5-1.4-1.2-1.4-2.1v-11.6c0-.1.4-.4.9-.8s1.2-1 1.9-1.6c.7-.6 1.5-1.3 2.4-2.2.9-.8 1.6-1.6 2.4-2.5.7-.9 1.3-1.8 1.8-2.6.5-.9.7-1.7.7-2.6 0-1-.4-2-1.2-2.7-.8-.8-1.7-1.4-2.8-2-1.1-.6-2.1-1-3.2-1.4-1.1-.4-1.9-.7-2.5-.9l-1.3-9c-.1-.8-.3-1.7-.6-2.7-.3-1-.6-1.9-1.1-2.7-.5-.8-1.1-1.5-1.8-2.1-.7-.6-1.6-.9-2.6-.9-1.4 0-2.6.2-3.6.5s-2.1.8-3.2 1.5c-.3.2-.9.6-1.6 1-.7.4-1.6.9-2.5 1.5-.9.5-1.9 1.1-2.9 1.7-1 .6-2 1.2-2.9 1.7-.9.5-1.8 1.2-2.5 1.6-.8.4-1.3 1.1-1.6 1.1h-1c-.5 0-1-.2-1.7-.2s-1.4-.2-2.1-.4c-.7-.1-.9-.4-1.4-.8-.5-.3-.3-.8-.3-1.4v-1.9c0-.6-.2-.9 0-.9h1.6s-.1-.2 0-.4.1-.5.2-.8c.1-.3.1-.6.2-.9.1-.2.1-.4 0-.5-.2-.4-.5-.6-.8-.8-.3-.2-.6-.3-.9-.5-.3-.2-.5-.4-.7-.7-.2-.2-.3-.7-.3-1.2 0-.4.1-.8.2-1.2.2-.4.4-.8.7-1.2.3-.4.2-.6.6-.9.3-.2.8-.3.8-.3v.8c0 .5.4 1 .6 1.5.1.5.7.7 1.2.7.3 0 .8-.1 1.1-.5.3-.3.7-.7.9-1.1.2-.4.5-1.2.6-1.6.1-.4.3.3.3-1.4H22.5c-.2 0-.5-.2-.9-.5s-.7-.4-1-.7c-.3-.3-.6-.5-.9-.8-.3-.3-.4-.6-.4-1 0-1.3.4-2.4 1.1-3.2.7-.8 1.6-1.4 2.6-1.8 1-.4 2.1-.8 3.2-1 1.1-.2 2.1-.5 2.8-.8.4-.1 1.2-.5 2.2-.9l3.3-1.5c1.2-.6 2.3-1.1 3.3-1.6s1.8-1.1 2.2-1.1h13.5c1.4 0 2.7.3 3.8 1 1.2.7 2.2 1.5 3.1 2.5.9 1 1.8 2.1 2.5 3.3.8 1.2 1.5 2.3 2.3 3.3.8 1 1.5 1.9 2.3 2.5.7.7 1.6 1 2.5 1 .4 0 .6-.1.8-.4.1-.3.4-.4.8-.4.5 0 1 .1 1.5.3.5.2 1 .4 1.5.7.5.2 1 .5 1.5.7.5.2 1 .3 1.5.3 1.4 0 2.7-.1 4.1-.2 1.3-.1 2.7-.3 4.1-.4 1.4-.2 2.7-.3 4.1-.5 1.3-.1 2.7-.2 4.1-.2 2.5 0 4.9.1 7.2.4 2.3.3 4.7.8 7.2 1.6 1.6.6 3.3 1.2 5 2 1.7.7 3.4 1.5 5.1 2.2 1.7.7 3.4 1.3 5.2 1.7 1.8.5 3.5.7 5.4.7h1.2c.6 0 1.1-.1 1.3-.1 4.3-.9 8.5-1.8 12.8-2.7 4.2-.9 8.5-1.6 12.7-2.3 4.2-.7 8.5-1.2 12.8-1.5 4.3-.4 8.6-.6 13-.6h3.3c1.8 0 3.6 0 5.5.1s3.5.7 5 .9l36.1 7.2h11.6c-.8 0-1.8 1-3.1 1.3-1.6.6-2.9.4-4.3.5zm-391.8 33.9c-.3 0-.4.2-.4.6h-.1c-.3 0-.5.2-.5.5 0 .4.2.6.5.6s.4-.2.4-.6h.1c.3 0 .5-.2.5-.5 0-.4-.2-.6-.5-.6zm1.4-.8c-.4.2-.7.5-.9.8h.3c.4 0 .7-.1 1.1-.3.4-.2.6-.5.8-.8h-.3c-.3 0-.6.1-1 .3zm3-2.5c-.3 0-.4.2-.4.5h-.1c-.3 0-.4.2-.4.6h-.1c-.3 0-.5.2-.5.6 0 .4.2.5.5.5s.5-.2.5-.5h.1c.3 0 .5-.2.5-.6h.1c.3 0 .5-.2.5-.6-.2-.3-.3-.5-.7-.5zm23.1-5.9c-.4.6-.9 1-1.3 1.4.2.6.5.9.8 1 .3.1.7.2 1.1.2.5 0 1-.1 1.4-.5.4-.3.8-.7 1.1-1.2.3-.5.5-.9.8-1.5.2-.5.4-1.2.5-1.2h-3.4c-.3.2-.6 1.2-1 1.8z"/><path d="M-159.3 2c-69.6 0-126 56.4-126 126s56.4 126 126 126 126-56.4 126-126S-89.7 2-159.3 2zm94.4 74.7c-.5.2-1 .3-1.5.4-.6.1-1.1.1-1.6.1h-1.1c-.3 0-.7 0-.9.1-2 .4-3.7.8-5.2 1.2-1.4.4-2.6 1-3.6 1.6-1 .6-1.8 1.3-2.5 2.2-.7.8-1.2 1.8-1.7 2.9-.5 1.1-1 2.4-1.5 3.9s-1 3.1-1.6 5c-.4 1.2-.8 2.3-1.2 3.4-.4 1.1-.8 2.1-1.2 3.2-.4 1-.9 2.1-1.4 3.1-.5 1-1.1 2.1-1.7 3.2-.8 1.5-1.7 2.8-2.6 4-.9 1.2-1.9 2.4-2.9 3.6-1 1.2-2 2.4-3.1 3.5-1.1 1.2-2.1 2.4-3.1 3.8-.6.9-1.1 1.8-1.4 2.6-.3.9-.6 1.7-1 2.5-.3.8-.8 1.5-1.3 2.2-.5.7-1.4 1.2-2.5 1.6-.2.1-.7.3-1.3.6-.6.2-1.3.4-2 .7-.7.2-1.4.4-2 .6-.6.2-1.1.3-1.3.4.3.9.4 1.6.2 2-.2.4-.5.7-.9.9l-1.2.6c-.4.2-.7.5-.9 1l-2.2 6.7c-.2.6-.5 1.1-1 1.5-.5.4-1.1.7-1.8.9-.6.2-1.3.1-2 .2s-1.3-.1-1.8-.1h-.8c-.5 0-.9.2-1.1 0-.3-.1-.4-.3-.4-.8 0-.2 0-.3.1-.4.1-.1.1-.2.2-.3.1-.1.2-.2.2-.3.1-.1.1-.2.1-.4v-.3c-1.2.4-2.3 1-3.4 1.6-1.1.6-2.2 1.3-3.3 2-1.1.7-2.2 1.4-3.3 2.2-1.1.7-2.2 1.4-3.3 2-.2.1-.5.3-.9.4-.4.2-.8.3-1.2.6-.4.2-.7.5-1 .8-.3.3-.4.6-.4 1v.5c.6.5 1.2 1 1.8 1.6.6.6 1.2 1.2 1.9 1.7.7.6 1.3 1.1 2 1.6s1.4.9 2.1 1.2c.6.3 1.2.5 1.8.7.6.2 1.3.3 1.9.5.6.2 1.3.4 1.9.6.6.2 1.2.5 1.7.9s1 .9 1.3 1.4c.4.5.7 1 1.1 1.5.3.5.7 1 1.1 1.4.4.5.9.9 1.5 1.3.4.2 1 .4 1.7.6l2.1.6c.7.2 1.3.6 1.8 1s.8 1 .8 1.7c0 0 0 .1-.1.3v.2l-5.6 1.1c-.4.1-.8.2-1.1.4-.3.2-.7.3-1.2.3h-.6c-.2-.1-.6-.3-1.1-.6-.5-.3-1.1-.6-1.7-1-.6-.3-1.2-.7-1.7-1-.5-.3-.9-.6-1-.7l-.2-.2c-.1-.1-.2-.3-.3-.5-.1-.2-.2-.4-.3-.5-.1-.2-.2-.3-.2-.4l-2.2-4.5c-.2-.1-.6-.2-1.1-.4-.5-.2-1.1-.5-1.8-.7l-2.1-.9c-.7-.3-1.4-.7-2.1-1-.7-.3-1.3-.6-1.8-.8-.5-.2-.9-.4-1.1-.6-.9-.4-1.8-.9-2.8-1.6-.9-.6-1.8-1.3-2.6-2.1s-1.4-1.7-2-2.7c-.6-1-.9-2-1-3.1-.1 0-.3.1-.6.2s-.5.2-.6.3c-.1.1-.4.3-.9.6s-1 .7-1.7 1.2c-.7.4-1.4.9-2.1 1.4-.8.5-1.4.9-2.1 1.3-.7.4-1.2.8-1.7 1.1-.5.3-.8.5-.9.5-2.2 1.3-4.2 2.5-5.9 3.5-1.7 1-3.2 2.1-4.5 3.4-1.3 1.2-2.7 2.7-3.6 4.4-.9 1.7-.7 3.9-2.4 6.6v1.5c0 1.9.6 3.3 1.1 4.4.5 1.1 1.4 1.9 2.1 2.5.8.6 1.7 1.1 2.6 1.4.9.3 1.8.6 2.5 1 .8.3 1.4.4 1.9 1s.8 2 .8 2h-13.2l-.2-.4c-.1-.2-.2-.1-.4-.2-.1-.1-.3-.1-.5-.1l-.6-.3c-.6-.4-1-.9-1.2-1.5-.2-.7-.4-1.4-.5-2.1-.1-.8.1-1.5.2-2.3 0-.8.3-1.4.3-2v-1.4c0-.4 0-.9.3-1.7.2-.8.3-1.7.6-2.7.3-1 .5-2 .8-3.1.3-1.1.5-2.1.8-3.1.3-1 .5-1.9.7-2.6.2-.8.3-1.4.4-1.7.2-.8.4-1.4.7-2 .2-.6.6-1.2 1-1.9 1.8-.7 3.3-1.5 4.5-2.5 1.2-1 2.3-2.1 3.2-3.3 1-1.1 1.9-2.3 2.9-3.4.9-1.2 2.1-2.2 3.4-3.1.3-.2.8-.5 1.4-.7.6-.2 1.3-.5 2-.8.8-.3 1.5-.6 2.3-1 .8-.3 1.5-.7 2.1-1.1.6-.4 1.2-.9 1.6-1.3.4-.5.6-1 .6-1.5v-1.3c0-.4-.2-.8-.6-1.2-.1 0-.4-.1-.8-.3-.4-.1-.8-.3-1.2-.5l-1.2-.6c-.4-.2-.6-.3-.8-.3-.5-.2-1.2-.6-2-1.2s-1.7-1.2-2.6-1.9c-.9-.7-1.7-1-2.5-1.5s-1.4-.6-1.7-.6h-7.8c-5.9 0-11.8-.1-17.5.1-5.8.2-11.6.2-17.5.2-4.4 0-8.6-.1-12.8-.4-4.2-.2-8.3-.7-12.3-1.4s-8-1.7-11.9-2.9c-3.9-1.2-7.8-2.9-11.7-5-.4-.2-.9-.4-1.4-.7-.5-.3-1.1-.6-1.6-1s-.9-.8-1.3-1.3-.5-1-.5-1.6c.6 0 1.3.1 2.1.4l2.4.9c.8.3 1.5.7 2.2 1 .7.3 1.2.5 1.5.6 1.4.6 3 1.1 4.6 1.6 1.6.5 3.3 1 5 1.4 1.7.4 3.4.7 5.1 1 1.7.2 3.3.3 4.8.3h25.1c.1 0 .5 0 1.2-.1s1.5-.2 2.5-.3c1-.1 2.1-.3 3.3-.5l3.6-.6c1.2-.2 2.3-.4 3.4-.6 1.1-.2 2-.4 2.6-.6 2.1-.4 4.4-.9 6.8-1.3 2.4-.5 4.8-1 7.3-1.6 2.4-.6 4.8-1.3 7.2-2.1 2.3-.8 4.5-1.7 6.6-2.8 1.3-.6 2.5-1.2 3.8-1.8 1.2-.6 2.5-1.1 3.8-1.6 1.3-.5 2.6-.9 3.9-1.3 1.3-.4 2.7-.7 4.2-.9.1 0 .4-.1 1-.1.5 0 1.1-.1 1.8-.1.6 0 1.2-.1 1.8-.1.6-.1.9-.1 1-.2.3 0 .9-.1 1.9-.3 1-.2 2.1-.4 3.3-.7 1.3-.3 2.6-.6 4-.9 1.4-.3 2.8-.6 4-.9 1.2-.3 2.4-.9 3.3-1.1.9-.2 1.6-.7 1.9-.7h6.4c2.7 0 5.3.5 7.9.7 2.5.2 5.1.5 7.8.5 1.7 0 3.4-.4 5-1.2 1.6-.9 3.1-2 4.5-3.5s2.7-3.1 3.9-4.9c1.2-1.8 2.3-3.7 3.2-5.6 1-1.9 1.8-3.7 2.5-5.5.7-1.8 1.3-3.4 1.8-4.8.4-1.2.8-2.3 1.1-3.4.3-1.1.7-2.2 1-3.1.3-1 .7-1.8 1.2-2.6s1.1-1.4 1.8-2c.7-.6 1.6-1.3 2.6-1.6 1-.3 2.3-.8 3.8-.8h3c.8 1.6 1.7.9 3 1.3 1.2.4 2.4 1 3.5 1.5s2.1 1.2 3 1.8c.8.7 1.2 1.4 1.2 2.2 0 .6-.1 1.1-.4 1.4-.9.1-1.3.3-1.8.5z"/></svg>